<?xml version="1.0" encoding="UTF-8" standalone="no"?>
<svg
   width="222"
   height="29"
   viewBox="0 0 222 29"
   fill="none"
   version="1.1"
   id="svg1"
   sodipodi:docname="logo_exercise.svg"
   xml:space="preserve"
   inkscape:version="1.3 (0e150ed6c4, 2023-07-21)"
   xmlns:inkscape="http://www.inkscape.org/namespaces/inkscape"
   xmlns:sodipodi="http://sodipodi.sourceforge.net/DTD/sodipodi-0.dtd"
   xmlns="http://www.w3.org/2000/svg"
   xmlns:svg="http://www.w3.org/2000/svg"><defs
     id="defs1" /><sodipodi:namedview
     id="namedview1"
     pagecolor="#ffffff"
     bordercolor="#000000"
     borderopacity="0.25"
     inkscape:showpageshadow="2"
     inkscape:pageopacity="0.0"
     inkscape:pagecheckerboard="0"
     inkscape:deskcolor="#d1d1d1"
     inkscape:zoom="5.3513514"
     inkscape:cx="111"
     inkscape:cy="14.482323"
     inkscape:window-width="1920"
     inkscape:window-height="991"
     inkscape:window-x="-9"
     inkscape:window-y="-9"
     inkscape:window-maximized="1"
     inkscape:current-layer="svg1" /><path
     fill-rule="evenodd"
     clip-rule="evenodd"
     d="M118.16 11.8377L118.058 12.0953C117.202 14.0786 115.337 17.6845 112.476 17.9807C112.424 17.9807 112.37 17.9839 112.316 17.9872C112.262 17.9904 112.207 17.9936 112.156 17.9936H111.134H110.24L110.496 28.2062H100.966L100.698 17.8133H84.6409H78.5477H76.3378H62.4651L67.1149 21.3806H89.5206H90.0571L87.3873 28.5024H86.8636H63.4871H61.8009H61.2772L60.0381 27.5494L53.4211 22.501L51.1601 20.7882L48.4009 18.6762L45.0924 20.7882L42.3971 22.501L34.49 27.5365L33.0082 28.4895H30.7983H28.1923H25.5864H7.42173H2.60591H0L2.66978 21.3677H5.27569H10.0787H28.2434H28.9971L38.0539 15.6111L41.4774 13.4218L33.2126 7.1371H10.7941H7.97101L10.6408 0.0153317H13.4511H36.2017H39.0247L41.273 1.72816L47.8899 6.75074L49.7294 8.14161L51.9138 6.75074L59.8209 1.72816L62.5162 0.0153317H65.3393H86.5698H88.1027H89.3929H90.9257H112.182H114.737H114.992C118.313 -0.152088 120.804 1.07136 121.187 2.7198C121.264 3.04176 121.315 3.60841 120.945 4.40687L120.83 4.72883L120.574 5.41139L119.77 7.5492L119.246 8.92719L118.16 11.8377ZM107.762 10.6915C108.733 10.6915 109.767 9.89308 110.061 8.91432C110.355 7.93556 109.819 7.1371 108.848 7.1371H107.583H88.2687H86.7359H85.4584H83.9128H66.5401L60.9706 10.6915H78.9948H81.2047H87.2979H104.581H106.204H107.762ZM148.371 7.13697H131.024L125.697 21.3676H145.867L143.197 28.4894H123.04H123.002H118.914C116.908 28.5538 115.273 27.7038 114.839 26.416C114.75 26.1455 114.66 25.6948 114.801 25.0637C118.914 13.4603 122.12 4.98627 123.053 2.96436C123.295 2.44922 123.743 1.57349 124.675 0.903816C125.812 0.0795972 126.987 0.0152039 127.409 0.0152039H132.365H133.694H151.028H153.851L151.181 7.13697H148.371ZM145.547 28.4894L156.188 0.0152039H165.718L155.077 28.4894H145.547ZM211.921 0.0152039H209.954H207.131H200.45H199.863H197.052H192.428H188.391H185.581H182.873H181.8H180.791H180.382H177.559H170.814H169C168.4 0.0152039 167.864 0.388678 167.646 0.955329L166.42 4.2522L165.334 7.14985L164.811 8.54071C165.424 7.74225 166.446 7.14985 167.289 7.14985H188.992H189.758H194.382H197.193H197.78H204.474H207.284H209.251H219.343L222 0.0280831H211.921V0.0152039ZM203.031 10.6915H203.159V10.7044H207.911H218.002L215.345 17.8262H205.254H201.83H200.476H199.85H199.084H191.304C190.334 17.8262 189.107 18.6246 188.571 19.6034C188.034 20.5822 188.392 21.3806 189.363 21.3806H199.084H199.135V21.3677H214.017L211.347 28.4895H197.819H196.465H187.166C186.067 28.4895 185.237 27.6009 185.198 26.5706L184.969 27.2017C184.675 27.9744 183.934 28.4895 183.116 28.4895H172.463H172.22H157.338L160.008 21.3677H174.89H177.253H177.79C178.76 21.3677 179.987 20.5693 180.523 19.5905C181.06 18.6118 180.702 17.8133 179.731 17.8133H177.253H176.461H176.218H176.065H175.043H170.815H163.815C162.627 17.8133 161.796 16.6027 162.218 15.4823L163.598 11.7991L164.019 10.6915L164.326 9.85444C164.364 10.3567 164.734 10.6915 165.36 10.6915H187.677H188.315H188.354C189.439 10.7173 190.244 11.6059 190.283 12.6104L190.512 11.9794C190.806 11.2067 191.547 10.6915 192.365 10.6915H202.533H203.031ZM32.2292 10.6917H6.65553L3.98575 17.8134H29.5722L32.2292 10.6917Z"
     fill="#FAFAFA"
     id="path1" /></svg>
